<?xml version="1.0" encoding="UTF-8" standalone="no"?>
<!DOCTYPE svg PUBLIC "-//W3C//DTD SVG 1.1//EN" "http://www.w3.org/Graphics/SVG/1.1/DTD/svg11.dtd">
<svg width="100%" height="100%" viewBox="0 0 306 733" version="1.1" xmlns="http://www.w3.org/2000/svg" xmlns:xlink="http://www.w3.org/1999/xlink" xml:space="preserve" xmlns:serif="http://www.serif.com/" style="fill-rule:evenodd;clip-rule:evenodd;stroke-linecap:round;stroke-linejoin:round;stroke-miterlimit:1.5;">
    <g transform="matrix(1,0,0,1,-758.377,-340.354)">
        <g transform="matrix(0.9007,0,0,0.848959,91.2382,61.5558)">
            <path d="M1077.38,410.314C1077.38,366.657 1044.03,331.266 1002.88,331.266L817.897,331.266C776.748,331.266 743.39,366.657 743.39,410.314L743.39,1109.48C743.39,1153.14 776.748,1188.53 817.897,1188.53L1002.88,1188.53C1044.03,1188.53 1077.38,1153.14 1077.38,1109.48L1077.38,410.314Z" style="fill:rgb(235,235,235);stroke:black;stroke-width:5.56px;"/>
        </g>
        <g transform="matrix(0.113796,0,0,0.261823,806.789,430.56)">
            <path d="M1077.38,403.841C1077.38,363.759 1002.62,331.266 910.403,331.266C910.393,331.266 910.383,331.266 910.373,331.266C818.151,331.266 743.39,363.759 743.39,403.841C743.39,565.604 743.39,954.188 743.39,1115.95C743.39,1156.03 818.151,1188.53 910.373,1188.53C910.383,1188.53 910.393,1188.53 910.403,1188.53C1002.62,1188.53 1077.38,1156.03 1077.38,1115.95C1077.38,954.188 1077.38,565.604 1077.38,403.841Z" style="fill:white;"/>
            <clipPath id="_clip1">
                <path d="M1077.38,403.841C1077.38,363.759 1002.62,331.266 910.403,331.266C910.393,331.266 910.383,331.266 910.373,331.266C818.151,331.266 743.39,363.759 743.39,403.841C743.39,565.604 743.39,954.188 743.39,1115.95C743.39,1156.03 818.151,1188.53 910.373,1188.53C910.383,1188.53 910.393,1188.53 910.403,1188.53C1002.62,1188.53 1077.38,1156.03 1077.38,1115.95C1077.38,954.188 1077.38,565.604 1077.38,403.841Z"/>
            </clipPath>
            <g clip-path="url(#_clip1)">
                <g transform="matrix(8.78763,0,0,3.81938,-7089.76,-1644.47)">
                    <path d="M847.309,601.748L975.141,601.748" style="fill:none;stroke:rgb(255,0,0);stroke-width:23.33px;"/>
                </g>
            </g>
            <path d="M1164.58,403.841C1164.58,342.828 1050.78,293.367 910.403,293.367C910.393,293.367 910.383,293.367 910.373,293.367C769.993,293.367 656.193,342.828 656.193,403.841C656.193,565.604 656.193,954.188 656.193,1115.95C656.193,1176.96 769.993,1226.42 910.373,1226.42C910.383,1226.42 910.393,1226.42 910.403,1226.42C1050.78,1226.42 1164.58,1176.96 1164.58,1115.95C1164.58,954.188 1164.58,565.604 1164.58,403.841ZM1077.38,403.841C1077.38,363.759 1002.62,331.266 910.403,331.266C910.393,331.266 910.383,331.266 910.373,331.266C818.151,331.266 743.39,363.759 743.39,403.841C743.39,565.604 743.39,954.188 743.39,1115.95C743.39,1156.03 818.151,1188.53 910.373,1188.53C910.383,1188.53 910.393,1188.53 910.403,1188.53C1002.62,1188.53 1077.38,1156.03 1077.38,1115.95C1077.38,954.188 1077.38,565.604 1077.38,403.841Z"/>
        </g>
        <g transform="matrix(3.29928,0,0,3.29928,-2284.18,-1285.34)">
            <g transform="matrix(24,0,0,24,980.833,580.56)">
                <path d="M0.588,-0.251L0.683,-0.227C0.663,-0.149 0.627,-0.09 0.575,-0.049C0.524,-0.008 0.461,0.012 0.386,0.012C0.309,0.012 0.246,-0.003 0.198,-0.035C0.15,-0.066 0.113,-0.112 0.088,-0.171C0.062,-0.231 0.05,-0.295 0.05,-0.363C0.05,-0.438 0.064,-0.503 0.093,-0.558C0.121,-0.614 0.162,-0.656 0.214,-0.685C0.267,-0.714 0.325,-0.728 0.388,-0.728C0.459,-0.728 0.52,-0.71 0.568,-0.673C0.617,-0.637 0.651,-0.586 0.67,-0.52L0.577,-0.498C0.561,-0.55 0.536,-0.588 0.505,-0.611C0.473,-0.635 0.434,-0.647 0.386,-0.647C0.331,-0.647 0.285,-0.634 0.248,-0.607C0.211,-0.581 0.185,-0.546 0.17,-0.501C0.155,-0.457 0.147,-0.411 0.147,-0.364C0.147,-0.303 0.156,-0.25 0.174,-0.204C0.192,-0.159 0.219,-0.125 0.257,-0.103C0.294,-0.08 0.335,-0.069 0.378,-0.069C0.431,-0.069 0.476,-0.084 0.513,-0.115C0.55,-0.145 0.575,-0.191 0.588,-0.251Z" style="fill-rule:nonzero;"/>
            </g>
        </g>
        <g transform="matrix(3.29928,0,0,3.29928,-2276.91,-1208.76)">
            <g transform="matrix(24,0,0,24,980.833,580.56)">
                <path d="M0.259,-0L0.259,-0.631L0.023,-0.631L0.023,-0.716L0.591,-0.716L0.591,-0.631L0.354,-0.631L0.354,-0L0.259,-0Z" style="fill-rule:nonzero;"/>
            </g>
        </g>
        <g transform="matrix(0.136271,0,0,0.097375,786.328,825.098)">
            <path d="M1077.38,564.96C1077.38,435.894 1002.62,331.266 910.394,331.266C910.39,331.266 910.386,331.266 910.381,331.266C818.155,331.266 743.39,435.894 743.39,564.96C743.39,686.117 743.39,833.676 743.39,954.832C743.39,1083.9 818.155,1188.53 910.381,1188.53C910.386,1188.53 910.39,1188.53 910.394,1188.53C1002.62,1188.53 1077.38,1083.9 1077.38,954.832C1077.38,833.676 1077.38,686.117 1077.38,564.96Z" style="fill:white;"/>
            <path d="M1248.61,564.96C1248.61,303.557 1097.18,91.647 910.395,91.647C910.39,91.647 910.386,91.647 910.381,91.647C723.59,91.647 572.166,303.557 572.166,564.96C572.166,686.117 572.166,833.676 572.166,954.832C572.166,1216.24 723.59,1428.14 910.381,1428.14C910.386,1428.14 910.39,1428.14 910.394,1428.14C1097.18,1428.14 1248.61,1216.24 1248.61,954.832L1248.61,564.96ZM1077.38,564.96C1077.38,435.894 1002.62,331.266 910.394,331.266C910.39,331.266 910.386,331.266 910.381,331.266C818.155,331.266 743.39,435.894 743.39,564.96C743.39,686.117 743.39,833.676 743.39,954.832C743.39,1083.9 818.155,1188.53 910.381,1188.53C910.386,1188.53 910.39,1188.53 910.394,1188.53C1002.62,1188.53 1077.38,1083.9 1077.38,954.832C1077.38,833.676 1077.38,686.117 1077.38,564.96Z"/>
        </g>
    </g>
</svg>
